<svg xmlns:xlink="http://www.w3.org/1999/xlink" xmlns="http://www.w3.org/2000/svg" xml:space="preserve" viewBox="0 0 920.2 143.2" width="920.2"  height="143.2" ><path d="M10.4 127.7V14.1c0-7.4-4.4-9-9.4-9.6V.9h50.4c24.8 0 50.4 7 50.4 27.8 0 14.6-13 25.2-28.8 25.8 27.8 0 47.4 16.8 47.4 41.8 0 28.2-22.6 44.6-62.8 44.6H1v-3.6c4.8-.6 9.4-2.2 9.4-9.6m62.2-98.6C72.6 13.9 62 6.7 51.8 6.7H48v46.8c11.2 0 24.6-6.8 24.6-24.4M53 135.1c8.2 0 27-5.8 27-38.8 0-33.6-25.6-37-32-37v75.8zM130.6 86.5c0-33.8 24.4-57.6 59.2-57.6 32.6 0 53.6 23 53.6 55.6 0 34.2-25.6 57.4-59 57.4-31.8 0-53.8-22.8-53.8-55.4m56.8 50c11.4 0 16.4-27.4 16.2-52.6-.2-25.8-5.6-49.6-16.8-49.6-12.4 0-16 24.2-16.4 52.8-.4 22.6 4.8 49.4 17 49.4M254 86.5c0-33.8 24.4-57.6 59.2-57.6 32.6 0 53.6 23 53.6 55.6 0 34.2-25.6 57.4-59 57.4-31.8 0-53.8-22.8-53.8-55.4m56.8 50c11.4 0 16.4-27.4 16.2-52.6-.2-25.8-5.6-49.6-16.8-49.6-12.4 0-16 24.2-16.4 52.8-.4 22.6 4.8 49.4 17 49.4M378.6 127.5V25.9c0-4.8-1.2-8.8-9.4-9.6v-3.6L411 1.5h3.6v64.8l30.8-23.4c6.2-4.8 2.2-8.4-4.6-9.2v-3.6h42v3.6c-10 0-22.2 7.4-33.4 15.4l29.4 75.4c3.6 9.2 9.4 11.6 17 12.8v3.6H436v-3.6c4.4-1 8.4-4.6 6-11l-21.6-55.6-5.8 4.4v52.4c0 7.4 4 9.2 9.4 9.8v3.6h-54.8v-3.6c5.2-.6 9.4-2.4 9.4-9.8M507.8 127.7V14.1c0-7.4-4.4-9-9.4-9.6V.9h50.4c24.8 0 50.4 7 50.4 27.8 0 14.6-13 25.2-28.8 25.8 27.8 0 47.4 16.8 47.4 41.8 0 28.2-22.6 44.6-62.8 44.6h-56.6v-3.6c4.8-.6 9.4-2.2 9.4-9.6M570 29.1c0-15.2-10.6-22.4-20.8-22.4h-3.8v46.8c11.2 0 24.6-6.8 24.6-24.4m-19.6 106c8.2 0 27-5.8 27-38.8 0-33.6-25.6-37-32-37v75.8zM626 88.3c0-34.2 26.8-59.4 56.2-59.4 30.4 0 43 17.4 42.8 43.8h-62.2c.2 29.2 11.2 45 34 45 11 0 19.4-4.2 25-13l3 2c-7.8 19.8-20.6 35.4-46 35.4-32.2 0-52.8-25.2-52.8-53.8m67.2-22c-.6-17-4.8-32-13.8-32-9.8 0-16.2 17.6-16.6 32zM786.8 74.5V56.9c0-14.2-4-22.2-10.8-22.2-11.2 0-15.8 18.6-12.8 37.8H733c-1.2-20.2 9-43.6 44.4-43.6 28.6 0 45.4 12.6 45.4 37.4v47.2c0 6.6 2.6 12.2 9.2 12.2 2.6 0 4.6-.8 6.6-2.2l2.2 2.4c-6.4 9.8-17 16-31.2 16-9 0-17.2-3-22.4-15.6-12.2 11.2-22.8 15.6-33.4 15.6-15.6 0-22.2-11.8-22.2-22 0-15 9.4-25.8 55.2-45.4m-25 32.8c0 18.8 18.6 18.4 25 14.2V80.7c-12.6 6.2-25 13.2-25 26.6M885.8 30.1h26.8v14h-27.2v60.6c0 11 4.4 15.8 15.4 15.8 5.4 0 11.8-1.8 16.2-5l2.2 2.4c-7.6 14.2-23 24-38.4 24-10.8 0-18.8-2.8-23.6-7.6-5.6-5.6-7.8-12.6-7.8-23.8V44.1h-13v-3.8l45.8-29h3.6z"/></svg>