<svg width="252" height="252" viewBox="0 0 252 252" fill="none" xmlns="http://www.w3.org/2000/svg">
<circle cx="126" cy="126" r="126" fill="#CC96FF"/>
<path d="M80.4 182.8V69.2C80.4 61.8 76 60.2 71 59.6V56H121.4C146.2 56 171.8 63 171.8 83.8C171.8 98.4 158.8 109 143 109.6C170.8 109.6 190.4 126.4 190.4 151.4C190.4 179.6 167.8 196 127.6 196H71V192.4C75.8 191.8 80.4 190.2 80.4 182.8ZM142.6 84.2C142.6 69 132 61.8 121.8 61.8H118V108.6C129.2 108.6 142.6 101.8 142.6 84.2ZM123 190.2C131.2 190.2 150 184.4 150 151.4C150 117.8 124.4 114.4 118 114.4V190.2H123Z" fill="black"/>
</svg>
