<svg width="992" height="278" viewBox="0 0 992 278" fill="none" xmlns="http://www.w3.org/2000/svg">
<path fill-rule="evenodd" clip-rule="evenodd" d="M353.029 67.6799H407.991C442.022 67.6799 466.086 90.3199 466.086 122.5C466.086 154.68 442.022 177.32 407.991 177.32H353.029V67.6799ZM395.746 147.703H405.713C416.392 147.703 422.088 140.584 422.088 122.5C422.088 104.417 416.392 97.2969 405.713 97.2969H395.746V147.703ZM562.909 177.32H472.634V67.6799H562.909V97.2969H515.208V109.97H560.061V134.176H515.208V147.703H562.909V177.32ZM663.435 177.32H573.161V67.6799H663.435V97.2969H615.735V109.97H660.588V134.176H615.735V147.703H663.435V177.32ZM991.074 177.32C984.922 160.555 976.318 142.667 964.744 122.616C978.28 118.646 986.375 110.112 986.375 97.0129C986.375 77.0779 968.007 67.6799 938.959 67.6799H879.156V177.32H921.872V131.968C931.363 147.952 938.355 163.036 942.946 177.32H991.074ZM921.872 116.662V97.2969H936.681C942.946 97.2969 946.506 100.715 946.506 106.98C946.506 113.245 942.946 116.662 936.681 116.662H921.872ZM868.904 177.32H778.629V67.6799H868.904V97.2969H821.204V109.97H866.057V134.176H821.204V147.703H868.904V177.32ZM673.689 97.2969H717.765C699.478 112.26 684.428 129.207 672.834 147.703V177.32H769.801V147.703H721.335C732.441 131.545 747.96 115.455 769.801 97.2969V67.6799H673.689V97.2969Z" fill="black"/>
<path fill-rule="evenodd" clip-rule="evenodd" d="M232.88 42.364C235.449 27.474 239.219 18.11 243.395 18.093H243.403C251.19 18.119 257.502 50.591 257.502 90.683C257.502 130.774 251.181 163.272 243.386 163.272C240.19 163.272 237.241 157.754 234.867 148.507C231.115 182.357 223.329 205.626 214.315 205.626C207.341 205.626 201.082 191.648 196.88 169.604C194.011 211.528 186.79 241.273 178.35 241.273C173.053 241.273 168.224 229.486 164.649 210.294C160.35 249.911 150.418 277.67 138.836 277.67C127.254 277.67 117.304 249.92 113.023 210.294C109.474 229.486 104.645 241.273 99.322 241.273C90.882 241.273 83.679 211.528 80.792 169.604C76.59 191.648 70.348 205.626 63.356 205.626C54.352 205.626 46.556 182.365 42.805 148.507C40.448 157.781 37.482 163.272 34.286 163.272C26.491 163.272 20.17 130.774 20.17 90.682C20.17 50.592 26.49 18.092 34.286 18.092C38.47 18.092 42.214 27.482 44.809 42.364C48.967 16.688 55.72 0 63.356 0C72.423 0 80.28 23.6 83.996 57.87C87.634 32.928 93.151 17.027 99.331 17.027C107.991 17.027 115.353 48.301 118.081 91.924C123.21 69.558 130.635 55.527 138.854 55.527C147.072 55.527 154.497 69.567 159.617 91.925C162.354 48.301 169.707 17.027 178.368 17.027C184.538 17.027 190.047 32.927 193.702 57.87C197.41 23.6 205.267 0 214.333 0C221.943 0 228.722 16.698 232.88 42.364ZM0 83.543C0 65.621 3.583 51.089 8.006 51.089C12.429 51.089 16.013 65.621 16.013 83.543C16.013 101.464 12.429 115.997 8.006 115.997C3.583 115.997 0 101.464 0 83.543ZM261.653 83.543C261.653 65.621 265.237 51.089 269.66 51.089C274.082 51.089 277.667 65.621 277.667 83.543C277.667 101.464 274.082 115.997 269.66 115.997C265.237 115.997 261.653 101.464 261.653 83.543Z" fill="#AD47FF"/>
</svg>
