<svg width="183" height="148" viewBox="0 0 183 148" fill="none" xmlns="http://www.w3.org/2000/svg">
<path d="M182.9 93.1231C181.907 105.779 177.043 127.064 142.58 137.575C119.83 144.426 98.336 141.131 86.622 138.151C86.36 142.805 85.837 144.792 85.105 145.577C84.112 146.57 76.686 150.859 72.606 144.792C70.776 141.916 69.835 136.686 69.312 132.032C42.954 119.899 30.821 102.432 30.351 101.647C29.775 101.072 23.761 94.7961 29.775 87.1091C35.423 80.1531 53.884 73.1981 70.514 70.3741C71.09 56.1491 72.763 45.4281 74.751 40.5121C77.156 34.8121 80.189 39.9371 82.804 43.8071C85.001 46.6831 86.308 59.0781 86.413 68.9621C97.29 68.4391 103.723 69.2231 115.856 71.4201C131.65 74.2961 142.213 82.3501 141.272 91.5021C140.592 100.497 132.329 104.21 129.192 104.471C125.897 104.733 120.772 102.38 120.772 102.38C117.268 100.706 120.51 99.2421 124.746 97.4111C129.348 95.1631 128.303 92.8621 128.303 92.8621C126.577 87.8411 106.076 84.3371 85.681 84.3371C85.576 95.5811 86.151 114.251 86.413 125.129C100.69 127.848 111.358 127.325 111.358 127.325C111.358 127.325 163.446 125.861 165.015 92.6001C166.636 59.2871 113.084 27.3341 73.495 17.1881C33.959 6.8331 11.576 14.0501 9.64104 15.0441C7.54904 16.0901 9.48404 16.4031 9.48404 16.4031C9.48404 16.4031 11.628 16.7171 15.341 17.9721C19.264 19.2281 16.23 21.2671 16.23 21.2671C9.48404 23.4111 1.90104 22.0521 0.437035 18.9661C-1.02796 15.8811 1.43004 13.1091 4.25404 9.1341C7.07804 4.9501 10.164 5.1071 10.164 5.1071C59.061 -11.8369 118.628 18.8091 118.628 18.8091C174.428 47.1021 183.946 80.2581 182.9 93.1231ZM35.319 91.3971C29.775 94.1171 33.593 98.0391 33.593 98.0391C44 109.23 56.813 116.238 68.998 120.579C70.41 101.281 70.201 94.4831 70.358 84.7551C51.322 86.0631 40.339 89.0961 35.319 91.3971Z" fill="#020713"/>
</svg>
