<svg width="86" height="86" viewBox="0 0 86 86" fill="none" xmlns="http://www.w3.org/2000/svg">
<circle cx="43" cy="43" r="43" fill="black"/>
<path d="M12.32 57V29H17.68L29.6 48.76H26.76L38.48 29H43.8L43.88 57H37.8L37.76 38.32H38.88L29.52 54.04H26.6L17.04 38.32H18.4V57H12.32Z" fill="white"/>
<path d="M60.76 57.48C56.7867 57.48 53.68 56.3733 51.44 54.16C49.2 51.9467 48.08 48.7867 48.08 44.68V29H54.56V44.44C54.56 47.1067 55.1067 49.0267 56.2 50.2C57.2933 51.3733 58.8267 51.96 60.8 51.96C62.7733 51.96 64.3067 51.3733 65.4 50.2C66.4933 49.0267 67.04 47.1067 67.04 44.44V29H73.44V44.68C73.44 48.7867 72.32 51.9467 70.08 54.16C67.84 56.3733 64.7333 57.48 60.76 57.48Z" fill="white"/>
</svg>
