<svg width="216" height="62" viewBox="0 0 216 62" fill="none" xmlns="http://www.w3.org/2000/svg">
<path d="M3.32 28V-1.90735e-06H8.68L20.6 19.76H17.76L29.48 -1.90735e-06H34.8L34.88 28H28.8L28.76 9.32H29.88L20.52 25.04H17.6L8.04 9.32H9.4V28H3.32ZM41.5231 28V-1.90735e-06H48.0031V28H41.5231ZM54.6481 28V-1.90735e-06H60.0081L76.5281 20.16H73.9281V-1.90735e-06H80.3281V28H75.0081L58.4481 7.84H61.0481V28H54.6481ZM92.9128 11.28H106.393V16.32H92.9128V11.28ZM93.3928 22.8H108.633V28H86.9528V-1.90735e-06H108.113V5.2H93.3928V22.8Z" fill="black"/>
<path d="M15.76 61.48C11.7867 61.48 8.68 60.3733 6.44 58.16C4.2 55.9467 3.08 52.7867 3.08 48.68V33H9.56V48.44C9.56 51.1067 10.1067 53.0267 11.2 54.2C12.2933 55.3733 13.8267 55.96 15.8 55.96C17.7733 55.96 19.3067 55.3733 20.4 54.2C21.4933 53.0267 22.04 51.1067 22.04 48.44V33H28.44V48.68C28.44 52.7867 27.32 55.9467 25.08 58.16C22.84 60.3733 19.7333 61.48 15.76 61.48ZM34.8434 61V33H47.5634C50.6034 33 53.2834 33.5867 55.6034 34.76C57.9234 35.9067 59.7368 37.52 61.0434 39.6C62.3501 41.68 63.0034 44.1467 63.0034 47C63.0034 49.8267 62.3501 52.2933 61.0434 54.4C59.7368 56.48 57.9234 58.1067 55.6034 59.28C53.2834 60.4267 50.6034 61 47.5634 61H34.8434ZM41.3234 55.68H47.2434C49.1101 55.68 50.7234 55.3333 52.0834 54.64C53.4701 53.92 54.5368 52.9067 55.2834 51.6C56.0568 50.2933 56.4434 48.76 56.4434 47C56.4434 45.2133 56.0568 43.68 55.2834 42.4C54.5368 41.0933 53.4701 40.0933 52.0834 39.4C50.7234 38.68 49.1101 38.32 47.2434 38.32H41.3234V55.68ZM81.4103 61.48C79.197 61.48 77.157 61.1333 75.2903 60.44C73.4503 59.72 71.837 58.7067 70.4503 57.4C69.0903 56.0933 68.0236 54.56 67.2503 52.8C66.5036 51.04 66.1303 49.1067 66.1303 47C66.1303 44.8933 66.5036 42.96 67.2503 41.2C68.0236 39.44 69.1036 37.9067 70.4903 36.6C71.877 35.2933 73.5036 34.2933 75.3703 33.6C77.237 32.88 79.2903 32.52 81.5303 32.52C84.0103 32.52 86.237 32.9333 88.2103 33.76C90.2103 34.5867 91.8903 35.7867 93.2503 37.36L89.0903 41.2C88.077 40.1333 86.9703 39.3467 85.7703 38.84C84.5703 38.3067 83.2636 38.04 81.8503 38.04C80.4903 38.04 79.2503 38.2533 78.1303 38.68C77.0103 39.1067 76.037 39.72 75.2103 40.52C74.4103 41.32 73.7836 42.2667 73.3303 43.36C72.9036 44.4533 72.6903 45.6667 72.6903 47C72.6903 48.3067 72.9036 49.5067 73.3303 50.6C73.7836 51.6933 74.4103 52.6533 75.2103 53.48C76.037 54.28 76.997 54.8933 78.0903 55.32C79.2103 55.7467 80.437 55.96 81.7703 55.96C83.0503 55.96 84.2903 55.76 85.4903 55.36C86.717 54.9333 87.9036 54.2267 89.0503 53.24L92.7303 57.92C91.2103 59.0667 89.437 59.9467 87.4103 60.56C85.4103 61.1733 83.4103 61.48 81.4103 61.48ZM86.8103 57.08V46.56H92.7303V57.92L86.8103 57.08ZM98.7497 61V33H105.23V61H98.7497ZM117.875 45.6H131.315V50.8H117.875V45.6ZM118.355 61H111.875V33H133.035V38.2H118.355V61ZM143.417 61V38.28H134.457V33H158.857V38.28H149.897V61H143.417ZM168.303 44.28H181.783V49.32H168.303V44.28ZM168.783 55.8H184.023V61H162.343V33H183.503V38.2H168.783V55.8ZM189.179 61V33H201.299C203.806 33 205.966 33.4133 207.779 34.24C209.593 35.04 210.993 36.2 211.979 37.72C212.966 39.24 213.459 41.0533 213.459 43.16C213.459 45.24 212.966 47.04 211.979 48.56C210.993 50.0533 209.593 51.2 207.779 52C205.966 52.8 203.806 53.2 201.299 53.2H192.779L195.659 50.36V61H189.179ZM206.979 61L199.979 50.84H206.899L213.979 61H206.979ZM195.659 51.08L192.779 48.04H200.939C202.939 48.04 204.433 47.6133 205.419 46.76C206.406 45.88 206.899 44.68 206.899 43.16C206.899 41.6133 206.406 40.4133 205.419 39.56C204.433 38.7067 202.939 38.28 200.939 38.28H192.779L195.659 35.2V51.08Z" fill="black"/>
</svg>
