<svg width="513" height="159" viewBox="0 0 513 159" fill="none" xmlns="http://www.w3.org/2000/svg">
<path d="M185.394 95.7976H175.154V47.4976H166.574V40.4976H184.004V48.4976H185.174C185.829 47.3331 186.618 46.2491 187.524 45.2676C188.651 44.0291 189.935 42.9432 191.344 42.0376C193.021 40.9453 194.842 40.0905 196.754 39.4976C199.021 38.8016 201.383 38.4642 203.754 38.4976C205.491 38.4983 207.225 38.6556 208.934 38.9676C210.522 39.2629 212.049 39.8205 213.454 40.6176C214.863 41.436 216.086 42.5396 217.044 43.8576C218.166 45.4685 218.964 47.2821 219.394 49.1976H220.004C220.597 47.9243 221.365 46.7396 222.284 45.6776C223.438 44.3484 224.767 43.1812 226.234 42.2076C230 39.7272 234.425 38.4347 238.934 38.4976C241.134 38.4907 243.326 38.7492 245.464 39.2676C247.533 39.7793 249.437 40.8121 250.994 42.2676C252.776 44.057 254.088 46.2589 254.814 48.6776C255.857 52.2477 256.329 55.9601 256.214 59.6776C256.214 69.6776 256.344 95.8276 256.344 95.8276H245.764V61.3176C245.764 56.7876 244.964 53.1776 243.394 50.5176C241.824 47.8576 239.014 46.5176 234.944 46.5176C233.443 46.5213 231.952 46.7574 230.524 47.2176C229.108 47.678 227.747 48.2916 226.464 49.0476C225.254 49.7595 224.115 50.5867 223.064 51.5176C222.166 52.2883 221.337 53.1348 220.584 54.0476V95.8076H210.584V61.3176C210.584 56.7876 209.814 53.1776 208.234 50.5176C206.654 47.8576 203.844 46.5176 199.764 46.5176C198.27 46.522 196.786 46.7582 195.364 47.2176C193.943 47.6738 192.578 48.2877 191.294 49.0476C190.082 49.762 188.941 50.589 187.884 51.5176C186.997 52.2934 186.175 53.1394 185.424 54.0476L185.394 95.7976ZM295.284 38.5076C299.009 38.4602 302.711 39.1009 306.204 40.3976C309.403 41.5842 312.285 43.4939 314.624 45.9776C317.025 48.6171 318.865 51.7163 320.034 55.0876C321.401 59.1004 322.068 63.3187 322.004 67.5576C322.004 77.4376 319.594 85.0442 314.774 90.3776C309.954 95.7109 303.467 98.3776 295.314 98.3776C286.687 98.3776 280.057 95.7876 275.424 90.6076C270.791 85.4276 268.484 77.7442 268.504 67.5576C268.429 63.4297 269.107 59.3226 270.504 55.4376C271.751 52.0324 273.676 48.916 276.164 46.2776C278.534 43.7728 281.416 41.8082 284.614 40.5176C288.004 39.1543 291.63 38.4713 295.284 38.5076ZM279.164 67.5076C279.164 74.7209 280.597 80.4842 283.464 84.7976C284.694 86.8175 286.434 88.4785 288.508 89.6141C290.583 90.7497 292.92 91.3199 295.284 91.2676C300.677 91.2676 304.694 89.1476 307.334 84.9076C309.974 80.6676 311.287 74.8676 311.274 67.5076C311.298 64.5504 310.921 61.6036 310.154 58.7476C309.502 56.2407 308.409 53.8702 306.924 51.7476C305.584 49.8523 303.855 48.2639 301.854 47.0876C299.853 45.9492 297.586 45.3625 295.284 45.3876C290.024 45.3876 286.024 47.4076 283.284 51.4476C280.544 55.4876 279.171 60.8576 279.164 67.5576V67.5076ZM357.494 40.5176L354.914 47.5176H345.284V95.8176H335.064V36.0376C335.064 27.0242 337.397 20.5176 342.064 16.5176C346.784 12.5176 353.314 10.5176 361.704 10.5176C363.238 10.5312 364.77 10.628 366.294 10.8076C368.024 10.9976 369.824 11.2776 371.694 11.6276C373.564 11.9776 375.454 12.4076 377.304 12.9176C379.25 13.5056 381.154 14.2239 383.004 15.0676V27.8076H372.814V19.4376C371.373 18.6491 369.823 18.0795 368.214 17.7476C366.363 17.3289 364.472 17.111 362.574 17.0976C357.014 17.0976 352.744 18.4709 349.764 21.2176C346.784 23.9642 345.291 28.6676 345.284 35.3276V40.5076L357.494 40.5176ZM361.094 47.5176L363.694 40.5176H383.004V95.7876H372.804V47.4876L361.094 47.5176ZM486.324 38.5076C490.052 38.461 493.758 39.1017 497.254 40.3976C500.447 41.5847 503.322 43.4945 505.654 45.9776C508.065 48.6114 509.91 51.712 511.074 55.0876C512.427 59.1031 513.079 63.3211 513.004 67.5576C513.004 77.4376 510.597 85.0442 505.784 90.3776C500.971 95.7109 494.484 98.3776 486.324 98.3776C477.697 98.3776 471.071 95.7876 466.444 90.6076C461.817 85.4276 459.507 77.7442 459.514 67.5576C459.453 63.4255 460.151 59.3174 461.574 55.4376C462.821 52.0348 464.743 48.9191 467.224 46.2776C469.594 43.7728 472.476 41.8082 475.674 40.5176C479.058 39.1579 482.677 38.475 486.324 38.5076ZM470.204 67.5076C470.204 74.7209 471.637 80.4842 474.504 84.7976C475.734 86.8175 477.474 88.4785 479.548 89.6141C481.623 90.7497 483.96 91.3199 486.324 91.2676C491.734 91.2676 495.734 89.1376 498.324 84.9076C500.914 80.6776 502.274 74.9076 502.274 67.5076C502.293 64.5507 501.916 61.6045 501.154 58.7476C500.499 56.2401 499.402 53.8696 497.914 51.7476C496.581 49.853 494.859 48.2644 492.864 47.0876C490.86 45.9475 488.589 45.3608 486.284 45.3876C481.024 45.3876 477.024 47.4076 474.284 51.4476C471.544 55.4876 470.184 60.8576 470.204 67.5576V67.5076ZM402.254 19.4276H393.984V12.4276H412.204V47.9476C413.124 45.5076 415.474 43.3676 418.154 41.6476C420.834 39.9276 424.444 39.0776 429.004 39.0776C431.585 39.0843 434.145 39.5482 436.564 40.4476C439.17 41.4213 441.503 43.0096 443.364 45.0776C445.572 47.5596 447.27 50.4509 448.364 53.5876C449.767 57.774 450.427 62.1737 450.314 66.5876C450.365 70.8443 449.688 75.0784 448.314 79.1076C447.09 82.6959 445.163 86.0038 442.644 88.8376C440.231 91.5366 437.245 93.6618 433.904 95.0576C430.335 96.5432 426.5 97.285 422.634 97.2376C419.137 97.2298 415.65 96.8476 412.234 96.0976C408.79 95.3593 405.449 94.2041 402.284 92.6576L402.254 19.4276ZM412.074 89.0676C415.146 90.0593 418.356 90.5588 421.584 90.5476C427.824 90.5476 432.437 88.4909 435.424 84.3776C438.411 80.2642 439.891 74.8876 439.864 68.2476C439.864 61.3176 438.514 56.0176 435.754 52.3676C434.571 50.6471 432.982 49.2451 431.128 48.2857C429.274 47.3263 427.212 46.8392 425.124 46.8676C422.265 46.7337 419.433 47.4731 417.004 48.9876C415.089 50.2584 413.419 51.8641 412.074 53.7276V89.0676ZM185.904 145.368C185.794 144.828 185.704 144.368 185.644 143.928C185.582 143.507 185.545 143.083 185.534 142.658C184.899 143.55 184.081 144.297 183.134 144.848C182.17 145.424 181.067 145.728 179.944 145.728C178.369 145.831 176.817 145.31 175.624 144.278C175.117 143.747 174.724 143.119 174.47 142.431C174.215 141.743 174.104 141.01 174.144 140.278C174.118 139.478 174.297 138.685 174.665 137.974C175.032 137.263 175.576 136.658 176.244 136.218C177.955 135.163 179.947 134.654 181.954 134.758H185.534V132.958C185.555 132.491 185.476 132.025 185.304 131.59C185.131 131.156 184.869 130.763 184.534 130.438C183.772 129.785 182.785 129.455 181.784 129.518C180.854 129.475 179.938 129.758 179.194 130.318C178.889 130.537 178.639 130.825 178.465 131.158C178.291 131.492 178.199 131.862 178.194 132.238H175.064V132.138C175.055 131.429 175.219 130.73 175.541 130.099C175.864 129.468 176.335 128.925 176.914 128.518C178.361 127.382 180.166 126.8 182.004 126.878C183.789 126.789 185.546 127.347 186.954 128.448C187.592 129.005 188.093 129.702 188.419 130.484C188.745 131.266 188.887 132.112 188.834 132.958V141.708C188.831 142.336 188.864 142.963 188.934 143.588C189.002 144.188 189.126 144.78 189.304 145.358L185.904 145.368ZM180.424 142.958C181.568 142.976 182.692 142.656 183.654 142.038C184.497 141.561 185.158 140.819 185.534 139.928V136.978H181.834C180.685 136.918 179.553 137.273 178.644 137.978C178.277 138.253 177.978 138.609 177.77 139.018C177.562 139.427 177.45 139.879 177.444 140.338C177.426 140.692 177.485 141.046 177.616 141.375C177.747 141.705 177.948 142.002 178.204 142.248C178.825 142.761 179.62 143.016 180.424 142.958ZM217.584 136.998C217.693 139.255 217.034 141.483 215.714 143.318C215.106 144.104 214.318 144.733 213.417 145.152C212.516 145.572 211.527 145.769 210.534 145.728C209.525 145.748 208.523 145.553 207.594 145.158C206.749 144.785 206.01 144.207 205.444 143.478V152.338H202.144V127.248H204.674L205.194 129.598C205.748 128.753 206.509 128.065 207.404 127.598C208.359 127.121 209.416 126.884 210.484 126.908C211.513 126.865 212.536 127.089 213.454 127.557C214.371 128.024 215.153 128.72 215.724 129.578C217.055 131.684 217.705 134.149 217.584 136.638V136.998ZM214.284 136.648C214.356 134.878 213.938 133.123 213.074 131.578C212.718 130.948 212.196 130.428 211.565 130.075C210.933 129.722 210.217 129.55 209.494 129.578C208.642 129.552 207.801 129.774 207.074 130.218C206.389 130.66 205.828 131.269 205.444 131.988V140.748C205.826 141.462 206.388 142.066 207.074 142.498C207.817 142.937 208.671 143.156 209.534 143.128C210.223 143.164 210.91 143.026 211.531 142.725C212.151 142.424 212.686 141.971 213.084 141.408C213.934 140.091 214.353 138.543 214.284 136.978V136.648ZM232.774 145.368C232.664 144.828 232.574 144.368 232.514 143.928C232.452 143.507 232.415 143.083 232.404 142.658C231.769 143.55 230.951 144.297 230.004 144.848C229.04 145.424 227.937 145.728 226.814 145.728C226.036 145.781 225.254 145.68 224.515 145.431C223.775 145.183 223.092 144.79 222.504 144.278C221.996 143.748 221.602 143.12 221.347 142.432C221.093 141.744 220.983 141.01 221.024 140.278C220.998 139.478 221.177 138.685 221.545 137.974C221.912 137.263 222.456 136.658 223.124 136.218C224.831 135.162 226.82 134.653 228.824 134.758H232.404V132.958C232.425 132.491 232.346 132.025 232.174 131.59C232.001 131.156 231.739 130.763 231.404 130.438C230.645 129.787 229.662 129.457 228.664 129.518C227.73 129.472 226.811 129.755 226.064 130.318C225.759 130.537 225.509 130.825 225.335 131.158C225.161 131.492 225.069 131.862 225.064 132.238H221.934V132.138C221.922 131.429 222.085 130.728 222.408 130.097C222.73 129.466 223.203 128.923 223.784 128.518C225.226 127.38 227.029 126.798 228.864 126.878C230.666 126.78 232.442 127.338 233.864 128.448C234.5 129.006 234.999 129.703 235.324 130.485C235.648 131.267 235.788 132.113 235.734 132.958V141.708C235.734 142.358 235.734 142.988 235.834 143.588C235.902 144.188 236.026 144.78 236.204 145.358L232.774 145.368ZM227.304 142.958C228.448 142.974 229.571 142.654 230.534 142.038C231.374 141.561 232.032 140.819 232.404 139.928V136.978H228.704C227.555 136.918 226.423 137.273 225.514 137.978C225.147 138.253 224.848 138.609 224.64 139.018C224.432 139.427 224.32 139.879 224.314 140.338C224.299 140.692 224.358 141.045 224.489 141.374C224.62 141.703 224.82 142.001 225.074 142.248C225.698 142.763 226.497 143.017 227.304 142.958ZM249.074 130.168L247.374 130.068C246.594 130.039 245.824 130.256 245.174 130.688C244.555 131.121 244.075 131.726 243.794 132.428V145.368H240.494V127.248H243.444L243.764 129.898C244.213 129.026 244.864 128.275 245.664 127.708C246.425 127.176 247.336 126.899 248.264 126.918C248.499 126.916 248.733 126.936 248.964 126.978L249.524 127.098L249.074 130.168ZM257.374 122.878V127.248H260.804V129.708H257.374V140.708C257.307 141.351 257.498 141.994 257.904 142.498C258.09 142.675 258.31 142.812 258.55 142.902C258.791 142.991 259.048 143.031 259.304 143.018C259.516 143.017 259.727 142.993 259.934 142.948C260.133 142.904 260.33 142.851 260.524 142.788L260.974 145.048C260.648 145.284 260.277 145.451 259.884 145.538C259.422 145.667 258.944 145.734 258.464 145.738C257.875 145.766 257.287 145.672 256.736 145.462C256.186 145.252 255.684 144.931 255.264 144.518C254.385 143.452 253.958 142.084 254.074 140.708V129.708H251.194V127.258H254.074V122.888L257.374 122.878ZM272.094 136.148C272.001 133.747 272.775 131.394 274.274 129.518C275.029 128.698 275.946 128.043 276.966 127.595C277.987 127.148 279.089 126.916 280.204 126.916C281.319 126.916 282.421 127.148 283.442 127.595C284.462 128.043 285.379 128.698 286.134 129.518C287.643 131.39 288.421 133.745 288.324 136.148V136.518C288.423 138.918 287.648 141.274 286.144 143.148C285.387 143.964 284.469 144.615 283.449 145.06C282.428 145.505 281.327 145.735 280.214 145.735C279.101 145.735 277.999 145.505 276.979 145.06C275.959 144.615 275.041 143.964 274.284 143.148C272.775 141.28 271.997 138.927 272.094 136.528V136.148ZM275.394 136.518C275.326 138.185 275.747 139.836 276.604 141.268C277.009 141.847 277.547 142.321 278.174 142.648C278.801 142.974 279.497 143.145 280.204 143.145C280.911 143.145 281.607 142.974 282.234 142.648C282.861 142.321 283.399 141.847 283.804 141.268C284.665 139.837 285.089 138.186 285.024 136.518V136.148C285.087 134.481 284.659 132.833 283.794 131.408C283.417 130.798 282.883 130.301 282.248 129.968C281.613 129.636 280.9 129.48 280.184 129.518C279.473 129.486 278.767 129.644 278.137 129.976C277.508 130.308 276.979 130.803 276.604 131.408C275.75 132.837 275.33 134.484 275.394 136.148V136.518ZM293.734 145.368V129.708H290.904V127.258H293.734V124.968C293.629 123.334 294.172 121.725 295.244 120.488C295.801 119.945 296.464 119.524 297.193 119.252C297.921 118.98 298.698 118.863 299.474 118.908C299.859 118.908 300.243 118.938 300.624 118.998C301.004 119.058 301.434 119.148 301.904 119.258L301.504 121.768L300.774 121.648C300.475 121.615 300.175 121.598 299.874 121.598C299.474 121.567 299.073 121.63 298.702 121.781C298.33 121.932 297.999 122.167 297.734 122.468C297.219 123.195 296.972 124.078 297.034 124.968V127.258H300.314V129.708H297.004V145.378L293.734 145.368ZM313.524 140.468C315.011 141.273 316.664 141.725 318.354 141.788C320.054 141.788 320.754 141.238 320.754 140.318C320.754 139.398 320.194 138.918 318.134 138.218C314.374 136.958 312.934 134.928 312.964 132.788C312.964 129.398 315.844 126.858 320.304 126.858C322.049 126.835 323.777 127.2 325.364 127.928L324.364 131.798C323.153 131.173 321.816 130.831 320.454 130.798C319.084 130.798 318.314 131.348 318.314 132.238C318.314 133.128 319.014 133.558 321.224 134.338C324.654 135.518 326.054 137.338 326.094 139.908C326.094 143.298 323.474 145.768 318.314 145.768C316.296 145.805 314.298 145.363 312.484 144.478L313.524 140.468ZM335.004 122.428V127.298H339.004V131.428H335.004V137.958C335.004 140.128 335.554 141.128 337.214 141.128C337.771 141.145 338.329 141.095 338.874 140.978V145.218C337.7 145.565 336.478 145.727 335.254 145.698C333.693 145.753 332.172 145.197 331.014 144.148C330.014 143.078 329.464 141.348 329.464 138.808V123.938L335.004 122.428ZM359.864 136.118C359.864 142.718 355.184 145.738 350.354 145.738C345.074 145.738 341.024 142.268 341.024 136.448C341.024 130.628 344.854 126.858 350.684 126.858C356.174 126.858 359.864 130.708 359.864 136.118ZM346.814 136.298C346.814 139.398 348.104 141.718 350.504 141.718C352.714 141.718 354.074 139.538 354.074 136.258C354.074 133.608 353.074 130.878 350.504 130.878C347.934 130.878 346.814 133.638 346.814 136.298ZM363.334 133.238C363.334 130.578 363.334 128.848 363.184 127.298H368.004L368.224 130.618H368.364C368.679 129.557 369.32 128.623 370.196 127.948C371.072 127.273 372.139 126.892 373.244 126.858C373.637 126.849 374.029 126.886 374.414 126.968V132.238C373.916 132.143 373.411 132.093 372.904 132.088C372.029 132.015 371.158 132.263 370.453 132.785C369.748 133.308 369.258 134.07 369.074 134.928C368.995 135.343 368.958 135.765 368.964 136.188V145.328H363.354L363.334 133.238ZM382.214 127.298L384.904 136.188C385.204 137.188 385.574 138.588 385.794 139.538H385.944C386.164 138.538 386.454 137.218 386.714 136.148L388.964 127.298H394.964L390.764 139.178C388.184 146.368 386.454 149.178 384.424 151.008C382.926 152.368 381.043 153.231 379.034 153.478L377.824 148.758C378.68 148.549 379.499 148.212 380.254 147.758C381.207 147.222 382.006 146.451 382.574 145.518C382.746 145.276 382.849 144.993 382.874 144.698C382.863 144.379 382.788 144.066 382.654 143.778L376.004 127.298H382.214ZM403.574 122.428V127.298H407.574V131.428H403.574V137.958C403.574 140.128 404.124 141.128 405.784 141.128C406.341 141.144 406.899 141.094 407.444 140.978V145.218C406.27 145.565 405.048 145.727 403.824 145.698C402.262 145.759 400.738 145.202 399.584 144.148C398.584 143.078 398.034 141.348 398.034 138.808V123.938L403.574 122.428ZM415.004 138.108C415.154 140.428 417.474 141.538 420.094 141.538C421.793 141.568 423.485 141.304 425.094 140.758L425.834 144.558C423.752 145.359 421.534 145.746 419.304 145.698C413.184 145.698 409.684 142.158 409.684 136.518C409.684 131.948 412.514 126.888 418.784 126.888C424.614 126.888 426.784 131.428 426.784 135.888C426.783 136.631 426.723 137.374 426.604 138.108H415.004ZM421.604 134.268C421.604 132.908 421.024 130.618 418.434 130.618C416.074 130.618 415.114 132.788 414.974 134.268H421.604ZM430.124 145.328H435.734V120.008L430.124 121.548V145.328Z" fill="black"/>
<path d="M140.774 75.8777C146.774 42.8777 126.684 13.2877 95.164 3.46767C39.204 -13.9523 -0.45604 37.3177 0.00396013 88.9877C0.38396 130.738 9.32396 158.498 9.33396 158.518C8.93396 157.278 19.904 151.518 21.164 150.848C25.4766 148.659 29.9535 146.81 34.554 145.318C43.994 142.178 53.754 140.198 63.434 137.988C93.724 131.068 126.264 117.988 137.854 86.5777C139.136 83.1024 140.113 79.5222 140.774 75.8777Z" fill="#FF5C28"/>
</svg>
