<svg width="206" height="232" viewBox="0 0 206 232" fill="none" xmlns="http://www.w3.org/2000/svg">
<path fill-rule="evenodd" clip-rule="evenodd" d="M140.38 125.042L134.697 129.509C132.188 129.268 129.671 129.123 127.152 129.075L128.393 122.722L124.827 78.8928L143.627 89.5191L140.38 125.042ZM53.3177 8.61599L53.0323 6.26653L57.1604 5.33585L58.7984 8.89726L53.3177 8.61599ZM27.209 10.8L20.4874 11.7389L19.9083 10.5642L21.8648 7.58603L27.9618 8.0824L27.209 10.8ZM159.089 135.139L180.027 94.4869C197.722 60.3495 175.216 33.2149 123.077 23.329L111.529 16.1855L62.6204 5.80326L59.1128 1.9399L53.2474 2.95744L50.8607 0.715532C50.8607 0.715532 44.619 -0.541922 35.1839 0.277078C25.8192 1.08781 21.1534 3.83435 21.1534 3.83435L19.9373 5.38962L0.0827292 11.6149L0 12.347L3.61932 12.9426L3.003 16.2021L0.587364 17.5257L1.70418 21.4056C2.02268 22.3156 2.90786 22.9154 5.29868 23.4697L28.9256 28.2348L86.1274 60.5067L105.002 122.552V124.844L99.008 132.591C95.7113 133.509 92.4808 134.589 89.333 135.834L96.7206 124.004V122.49L83.538 79.6663L68.6967 68.8332L90.3796 124.451L83.0334 138.589C65.7394 146.925 51.2373 160.102 41.2881 176.521C31.3388 192.94 26.3702 211.894 26.9856 231.082H27.0063C32.7683 178.889 76.6261 138.303 129.89 138.303C159.932 138.303 186.98 151.217 205.892 171.841L205.916 171.824C194.454 155.07 178.101 142.262 159.089 135.147V135.139Z" fill="#0131FF"/>
</svg>
