<svg xmlns:xlink="http://www.w3.org/1999/xlink" xmlns="http://www.w3.org/2000/svg" version="1.0" width="1000" height="1000" viewBox="0 0 1000.000000 1000.000000" preserveAspectRatio="xMidYMid meet">
  <g transform="translate(0.000000,1000.000000) scale(0.100000,-0.100000)" fill="#000000" stroke="none">
    <path d="M2870 9424 c-115 -15 -227 -39 -321 -70 -106 -35 -107 -36 -149 -95 l-43 -58 -233 -76 c-128 -41 -237 -75 -242 -75 -5 0 -15 -21 -22 -47 -13 -43 -11 -56 19 -180 18 -73 42 -144 52 -157 31 -40 107 -69 409 -156 157 -45 296 -89 310 -98 14 -8 186 -139 382 -290 l357 -274 109 -256 c60 -142 225 -530 366 -863 l258 -607 -119 -225 c-112 -214 -120 -226 -164 -250 -25 -15 -95 -62 -155 -105 -633 -460 -1017 -1180 -1039 -1947 l-5 -160 20 110 c82 457 241 827 507 1184 113 151 363 401 513 513 375 279 756 439 1211 509 207 33 571 33 778 0 557 -86 1044 -326 1444 -710 61 -58 107 -99 102 -91 -28 51 -156 203 -260 309 -192 197 -389 346 -621 467 -60 32 -110 58 -112 59 -2 2 119 225 269 496 317 577 357 654 397 774 86 257 91 479 16 705 -88 266 -266 478 -562 671 -266 173 -693 335 -1082 410 -53 10 -93 30 -215 104 l-150 92 -610 128 -610 127 -58 51 -59 50 -89 -13 -90 -13 -30 29 -29 28 -208 2 c-114 1 -223 0 -242 -2z m409 -173 l41 -33 71 12 71 12 52 -50 51 -50 621 -130 621 -130 149 -91 149 -90 165 -36 c302 -67 625 -186 831 -308 258 -151 426 -318 525 -522 62 -129 76 -188 81 -351 6 -161 -8 -249 -62 -401 -27 -77 -589 -1178 -615 -1206 -4 -5 -45 3 -91 18 -127 40 -303 81 -409 96 -52 7 -99 15 -103 19 -6 5 53 57 115 101 8 5 88 812 88 884 0 29 -10 35 -238 162 -130 73 -238 129 -240 124 -2 -5 17 -257 43 -559 43 -526 44 -554 30 -622 -8 -39 -15 -73 -15 -74 0 -2 -64 -6 -142 -9 -164 -7 -319 -27 -465 -60 -58 -13 -99 -19 -96 -13 4 6 35 48 70 92 52 68 63 88 63 120 0 39 -470 1589 -487 1604 -4 5 -334 190 -733 413 l-725 405 -322 65 c-178 35 -334 72 -348 81 -15 10 -30 35 -40 68 -14 49 -14 54 1 63 40 25 46 33 51 72 l5 40 -48 10 c-43 8 -47 10 -29 20 11 6 126 43 255 83 185 57 241 78 265 100 17 16 63 40 105 54 127 42 244 56 456 52 l191 -2 42 -33z m626 -1847 c95 -69 178 -131 183 -137 10 -14 342 -1086 342 -1105 0 -7 -43 -81 -96 -165 l-96 -152 -74 -31 c-41 -18 -74 -30 -74 -27 0 2 40 81 90 175 l89 171 -255 651 c-141 358 -265 672 -275 699 -10 26 -16 47 -13 47 3 0 83 -57 179 -126z"/>
    <path d="M3352 9147 c-40 -9 -43 -12 -40 -41 l3 -31 73 -3 72 -3 -22 46 c-12 25 -27 44 -32 44 -6 -1 -30 -6 -54 -12z"/>
    <path d="M2482 9061 c-32 -57 -24 -65 65 -57 40 4 80 9 88 12 14 6 39 63 31 72 -3 2 -40 6 -83 9 l-78 5 -23 -41z"/>
    <path d="M1950 7160 l0 -450 -450 0 -450 0 2 -262 3 -263 448 -3 447 -2 0 -445 0 -445 265 0 265 0 0 445 0 445 445 0 445 0 0 265 0 265 -445 0 -445 0 -2 448 -3 447 -262 3 -263 2 0 -450z" style="fill: rgb(0, 49, 255);"/>
    <path d="M3084 3160 c-192 -50 -328 -172 -391 -351 -32 -91 -37 -241 -10 -327 71 -228 260 -374 503 -389 177 -11 320 41 440 161 110 109 157 223 157 376 0 361 -345 623 -699 530z m239 -226 c61 -21 132 -84 164 -148 35 -68 43 -190 18 -265 -20 -60 -90 -143 -149 -174 -60 -32 -203 -32 -263 0 -103 56 -156 145 -161 275 -4 77 -1 93 24 148 32 71 103 141 167 163 56 20 143 21 200 1z"/>
    <path d="M7214 3165 c-133 -29 -246 -116 -281 -218 -25 -75 -23 -170 6 -231 47 -95 145 -141 379 -176 194 -29 242 -55 242 -130 0 -66 -78 -110 -195 -110 -98 1 -177 48 -210 127 l-14 33 -117 0 -117 0 6 -49 c14 -118 110 -238 224 -281 201 -75 441 -43 573 76 115 104 133 316 35 417 -67 69 -157 102 -360 132 -123 17 -192 46 -215 88 -13 24 -13 30 0 54 49 87 235 97 328 18 21 -19 45 -48 52 -65 l12 -30 120 0 120 0 -7 38 c-41 230 -302 368 -581 307z"/>
    <path d="M1470 2635 l0 -535 117 0 116 0 -6 342 c-5 244 -3 338 4 331 6 -6 120 -159 253 -340 l242 -328 112 -3 112 -3 0 536 0 536 -117 -3 -118 -3 4 -340 c2 -217 0 -336 -6 -330 -6 6 -113 150 -238 320 -125 171 -237 320 -248 333 -19 20 -29 22 -124 22 l-103 0 0 -535z"/>
    <path d="M4030 2636 l0 -536 125 0 125 0 0 190 0 190 88 0 87 0 99 -186 c54 -102 103 -187 110 -190 7 -3 71 -3 143 -2 l132 3 -119 205 c-66 113 -120 208 -120 212 0 3 20 18 44 32 130 76 188 243 139 397 -26 81 -106 157 -198 189 -66 22 -86 24 -362 28 l-293 4 0 -536z m547 305 c67 -31 90 -100 59 -176 -27 -63 -62 -75 -218 -75 l-138 0 0 135 0 135 128 0 c103 0 135 -4 169 -19z"/>
    <path d="M5158 3164 c-5 -4 -8 -245 -8 -536 l0 -530 288 4 c266 4 292 6 357 27 39 12 90 34 115 49 59 34 156 126 186 178 88 150 96 349 19 509 -63 132 -169 222 -318 272 -79 25 -91 27 -357 31 -151 2 -278 0 -282 -4z m534 -224 c142 -40 237 -201 210 -357 -13 -82 -47 -147 -100 -194 -65 -57 -113 -69 -269 -69 l-133 0 0 315 0 315 128 0 c70 0 144 -5 164 -10z"/>
    <path d="M6420 2635 l0 -536 123 3 122 3 0 530 0 530 -122 3 -123 3 0 -536z"/>
    <path d="M8057 3163 c-4 -3 -7 -244 -7 -535 l0 -528 125 0 125 0 2 222 3 222 170 -219 170 -220 148 -3 c81 -1 147 1 147 5 0 5 -97 132 -215 283 -118 151 -215 277 -215 280 0 3 92 114 205 248 113 134 205 245 205 248 0 2 -62 4 -138 4 l-139 0 -171 -217 -172 -216 0 216 0 217 -118 0 c-65 0 -122 -3 -125 -7z"/>
    <path d="M3390 1100 l0 -530 125 0 125 0 0 215 0 215 215 0 215 0 0 105 0 105 -215 0 -215 0 0 105 0 105 270 0 270 0 0 105 0 105 -395 0 -395 0 0 -530z"/>
    <path d="M4390 1100 l0 -530 125 0 125 0 0 530 0 530 -125 0 -125 0 0 -530z"/>
    <path d="M4940 1100 l0 -530 375 0 375 0 0 105 0 105 -250 0 -250 0 0 425 0 425 -125 0 -125 0 0 -530z"/>
    <path d="M5880 1100 l0 -530 120 0 120 0 2 347 3 348 128 -158 c75 -91 135 -157 145 -157 10 0 69 64 142 156 l125 155 3 -345 2 -346 125 0 125 0 0 530 0 530 -117 0 -118 0 -140 -179 c-77 -99 -143 -180 -146 -180 -4 -1 -69 80 -145 179 l-139 179 -117 1 -118 0 0 -530z"/>
  </g>
</svg>