<svg width="2920" height="705" viewBox="0 0 2920 705" fill="none" xmlns="http://www.w3.org/2000/svg">
<path d="M259.925 555.733V60.6367C259.925 46.4783 271.403 35 285.562 35C428.838 35 544.987 151.148 544.987 294.425V321.945C544.987 465.222 428.838 581.37 285.562 581.37C271.403 581.37 259.925 569.892 259.925 555.733Z" fill="#794CF8"/>
<path d="M10 413.615V53.64C10 43.345 18.345 35 28.64 35C132.813 35 217.263 119.45 217.263 223.623V243.633C217.263 347.807 132.813 432.257 28.64 432.257C18.345 432.257 10 423.91 10 413.615Z" fill="#794CF8"/>
<path d="M103.632 705C160.866 705 207.263 658.602 207.263 601.368C207.263 544.134 160.866 497.737 103.632 497.737C46.3975 497.737 0 544.134 0 601.368C0 658.602 46.3975 705 103.632 705Z" fill="#794CF8"/>
<path d="M1735.05 8.69832V173.135C1714.44 161.685 1692.95 152.987 1658.09 152.987C1572.87 152.987 1502.31 221.689 1502.31 324.288C1502.31 426.887 1568.75 495.135 1648.92 495.135C1684.66 495.135 1715.85 484.149 1737.34 463.99V488.261H1849.61V8.69832H1735.05ZM1886.25 488.261H2001.76V159.851H1886.25V488.261ZM2415.43 152.987C2377.86 152.987 2343.96 166.272 2320.6 193.748C2298.14 163.973 2265.61 152.987 2232.63 152.987C2203.3 152.987 2173.06 164.437 2151.53 184.133V159.851H2038.36V488.261H2153.87V299.553C2153.87 274.364 2170.35 256.503 2194.64 256.503C2220.3 256.503 2234.04 274.364 2234.04 298.182V488.261H2348.12V299.099C2348.12 274.364 2365.99 256.503 2389.36 256.503C2415.02 256.503 2428.3 274.85 2428.3 298.182V488.261H2541.01V281.67C2541.01 206.547 2490.15 152.965 2415.47 152.965L2415.43 152.987ZM1878.47 65.9605C1878.47 103.063 1906.87 131.457 1943.98 131.457C1981.09 131.457 2009.92 103.063 2009.92 65.9605C2009.92 28.8577 1981.09 0 1943.98 0C1906.87 0 1878.47 28.8577 1878.47 65.9605ZM1242.99 324.288C1242.99 283.062 1268.65 254.205 1305.29 254.205C1341.94 254.205 1367.61 283.062 1367.61 324.288C1367.61 365.513 1341.95 394.371 1305.29 394.371C1268.63 394.371 1242.99 365.513 1242.99 324.288ZM1127.53 324.288C1127.53 422.311 1203.58 495.599 1305.29 495.599C1407.01 495.599 1483.12 421.394 1483.12 324.288C1483.12 226.264 1407.07 152.987 1305.35 152.987C1203.63 152.987 1127.53 227.182 1127.53 324.288ZM2679.79 324.288C2679.79 283.062 2705.45 254.205 2742.1 254.205C2778.75 254.205 2804.43 283.062 2804.43 324.288C2804.43 365.513 2778.77 394.371 2742.11 394.371C2705.45 394.371 2679.8 365.513 2679.8 324.288H2679.79ZM2564.28 324.288C2564.28 422.311 2640.33 495.599 2742.04 495.599C2843.75 495.599 2919.82 421.394 2919.82 324.288C2919.82 226.264 2843.77 152.987 2742.04 152.987C2640.32 152.987 2564.28 227.182 2564.28 324.288ZM1617.71 324.288C1617.71 283.062 1643.37 254.205 1680.02 254.205C1716.67 254.205 1742.33 283.062 1742.33 324.288C1742.33 365.513 1716.68 394.371 1680.02 394.371C1643.36 394.371 1617.71 365.513 1617.71 324.288ZM875.546 615.142V474.987C895.7 485.973 917.646 495.135 952.514 495.135C1037.73 495.135 1108.29 426.434 1108.29 323.835C1108.29 221.235 1041.85 152.987 961.722 152.987C925.98 152.987 894.793 163.973 873.29 184.133V159.851H761V615.142H875.546ZM992.833 324.288C992.833 365.513 967.174 394.371 930.525 394.371C893.876 394.371 868.205 365.513 868.205 324.288C868.205 283.062 893.865 254.205 930.525 254.205C967.185 254.205 992.833 283.062 992.833 324.288Z" fill="#794CF8"/>
</svg>
