<svg width="545" height="670" viewBox="0 0 545 670" fill="none" xmlns="http://www.w3.org/2000/svg">
<path d="M259.925 520.733V25.6367C259.925 11.4783 271.403 0 285.562 0C428.838 0 544.987 116.148 544.987 259.425V286.945C544.987 430.222 428.838 546.37 285.562 546.37C271.403 546.37 259.925 534.892 259.925 520.733Z" fill="#794CF8"/>
<path d="M10 378.615V18.64C10 8.345 18.345 0 28.64 0C132.813 0 217.263 84.45 217.263 188.623V208.633C217.263 312.807 132.813 397.257 28.64 397.257C18.345 397.257 10 388.91 10 378.615Z" fill="#794CF8"/>
<path d="M103.632 670C160.866 670 207.263 623.602 207.263 566.368C207.263 509.134 160.866 462.737 103.632 462.737C46.3975 462.737 0 509.134 0 566.368C0 623.602 46.3975 670 103.632 670Z" fill="#794CF8"/>
</svg>
