<svg xmlns="http://www.w3.org/2000/svg" xmlns:xlink="http://www.w3.org/1999/xlink" version="1.1" id="Layer_1" x="0px" y="0px" width="335.723" height="110.941" viewBox="0 0 335.723 110.941" enable-background="new 0 0 335.723 110.941" xml:space="preserve">
<path fill="#C51A24" d="M0,0h335.723v110.941H0V0z"/>
<path fill="#FFFFFF" d="M47.818,64.81h9.378c5.092,6.849,10.932,8.94,17.64,8.94c4.13,0,6.026-1.604,6.026-4.28  c0-3.634-2.567-5.026-13.172-7.486c-12.615-2.992-19.203-6.846-19.203-16.258c0-9.2,7.48-16.795,19.648-16.795  c8.85,0,15.522,3.106,18.212,6.521v-6.53h9.476v16.24h-9.38c-3.845-5.63-10.31-8.314-15.628-8.314c-4.465,0-5.918,1.82-5.918,4.28  c0,3.316,2.68,4.386,12.84,6.846c11.276,2.78,19.872,6.311,19.872,16.9c0,9.2-7.15,17.01-20.43,17.01  c-10.17,0-16.3-2.646-19.888-6.885l0.003,6.886h-9.48V64.81H47.818z M258.334,28.93c-16.26,0-29.375,10.752-29.375,26.476  s13.112,26.476,29.37,26.476c16.26,0,29.38-10.75,29.38-26.472c0-15.723-13.117-26.476-29.378-26.476 M258.331,73.97  c-6.204,0-9.696-4.976-9.696-18.56c0-13.585,3.492-18.561,9.696-18.561c6.205,0,9.697,4.976,9.697,18.561  S264.538,73.97,258.331,73.97 M156.531,72.405h-4.337V47.608c0-10.483-4.92-18.612-21.71-18.612c-11.112,0-25.352,3.1-25.352,13.479  c0,4.754,3.855,8.61,8.61,8.61c4.753,0,8.607-3.856,8.607-8.61c0-2.5-1.07-4.74-2.765-6.313c0,0,1.517-0.423,4.252-0.423  c6.727,0,10.608,4.38,10.608,10.465v5.707c-13.213,0-23.43,3.504-27.814,7.888c-2.14,2.14-3.53,5.243-3.53,8.558  c0,8.45,6.955,13.585,15.83,13.585c12.21,0,17.01-8.979,17.01-8.979h0.534l0.005,8.979h20.056v-9.54L156.531,72.405z   M134.441,62.045c0,6.574-2.91,9.846-7.063,9.846c-4.386,0-6.095-2.885-6.095-5.88c0-3.575,2.216-6.845,8.343-7.97  c2.672-0.535,3.85-0.644,4.814-0.857v4.867L134.441,62.045z M169.101,38.535L184.1,56.06L167.682,72.37h-5.658v9.503h24.443v-9.496  h-6.865l9.98-9.906l8.466,9.91h-6.12v9.496h34.346V72.37h-6.466L204.51,54.48l16.074-15.944h5.69v-9.622H201.81v9.627h6.817  l-9.6,9.524l-8.14-9.524h5.48v-9.627l-34.34,0.004v9.618H169.101z"/>
</svg>