<svg width="142" height="142" viewBox="0 0 142 142" fill="none" xmlns="http://www.w3.org/2000/svg">
<circle cx="71" cy="71" r="71" fill="#C51A24"/>
<path d="M37.0055 84.1428H50.0005C57.0564 93.7122 65.1487 96.6338 74.4439 96.6338C80.1667 96.6338 82.794 94.3927 82.794 90.6537C82.794 85.5763 79.237 83.6314 64.5418 80.1943C47.0614 76.0139 37.9326 70.629 37.9326 57.4786C37.9326 44.6243 48.2975 34.0126 65.1584 34.0126C77.4217 34.0126 86.667 38.3523 90.3945 43.1237V34H103.525V56.6906H90.5275C85.1995 48.8243 76.2411 45.0742 68.8721 45.0742C62.685 45.0742 60.6716 47.6171 60.6716 51.0542C60.6716 55.6874 64.3852 57.1824 78.4637 60.6195C94.0887 64.5037 106 69.4372 106 84.2322C106 97.0865 96.0924 107.999 77.6905 107.999C63.5982 107.999 55.1039 104.302 50.1321 98.3789L50.1363 108H37V84.1428H37.0055Z" fill="white"/>
</svg>
