<svg width="1864" height="431" viewBox="0 0 1864 431" fill="none" xmlns="http://www.w3.org/2000/svg">
<path fill-rule="evenodd" clip-rule="evenodd" d="M965.63 218.45C965.63 131.37 996.63 76.75 1035.01 70.84C996.63 25.09 933.16 0 875.6 0C812.13 0 754.56 26.57 714.71 70.85C753.08 78.23 764.89 110.71 764.89 159.42H719.13C719.13 129.9 713.23 115.14 695.51 115.14C688.13 115.14 682.22 119.57 679.27 125.47C679.27 126.94 677.79 128.42 677.79 128.42C676.32 132.85 674.84 137.28 674.84 141.7C674.84 200.74 773.74 197.79 773.74 290.78C773.74 326.21 745.69 360.15 714.7 360.15C756.04 404.43 810.65 431 875.6 431C937.59 431 993.68 404.43 1033.53 361.62C996.63 352.77 965.63 301.11 965.63 218.45ZM944.97 360.15H894.79V237.64H841.65V360.15H792.94V76.75H841.65V191.89H894.79V76.75H944.97V360.15Z" fill="#795FE4"/>
<path fill-rule="evenodd" clip-rule="evenodd" d="M702.9 315.87C716.18 315.87 726.52 302.59 726.52 284.87C726.52 249.44 694.05 242.06 660.1 211.07V222.88C661.33 278.43 680.82 315.87 702.9 315.87ZM1014.34 214.02C1014.34 165.31 1027.62 118.08 1052.72 118.08C1083.72 118.08 1091.1 191.88 1091.1 215.5C1091.1 265.69 1074.86 312.92 1052.72 312.92C1027.63 312.92 1014.34 264.21 1014.34 214.02ZM1507.34 81.1799H1299.22L1278.56 243.54L1256.42 81.1799H1210.66L1187.04 243.54H1185.56L1167.85 81.1799H1122.1L1159 357.2H1203.28L1228.37 181.55H1229.85L1253.46 357.2H1299.22L1328.74 123.98H1371.55V357.2H1421.73V123.98H1467.49V357.2H1519.15V81.1799H1507.34ZM1542.77 81.1799H1610.66L1632.81 222.88L1656.42 81.1799H1722.84V357.2H1677.09V154.98L1643.14 357.2H1615.09L1581.14 154.98H1579.67V357.2H1542.77V81.1799ZM1746.46 81.1799H1860.11V123.98H1796.64V193.36H1843.88V239.12H1796.64V314.39H1863.07V357.2H1746.46V81.1799Z" fill="#795FE4"/>
<path d="M435.27 402.32C440.46 404.99 451.01 408.18 464.23 408.51C487 409.01 499.39 400.31 508.59 379.88L630.63 107.69C625.61 105.01 614.4 101.99 605.35 101.83C589.62 101.5 568.52 104.68 555.13 136.82L515.63 230.06L438.12 103.84C433.1 102.33 420.87 100.16 412 100.16C384.55 100.16 369.32 110.2 353.41 127.44L278.08 209.81L338.68 305.22C349.9 322.63 364.63 331.5 388.57 331.5C404.3 331.5 417.36 327.82 423.39 324.98L350.4 214.99L402.13 160.09L487 293.33L435.27 402.32ZM275.16 299.36C275.16 319.44 267.29 331 228.12 331C222.93 331 218.41 330.66 214.06 330V63.83C214.06 43.57 220.92 22.47 260.43 22.47C265.45 22.47 270.48 22.97 275.17 23.98V299.36H275.16ZM194.36 259.18C194.36 296.68 169.92 323.97 120.2 329.33C84.21 333.18 32.14 328.66 7.37 325.81C6.54 321.8 5.87 316.77 5.87 312.75C5.87 280.11 23.45 272.58 40.02 272.58C57.26 272.58 84.38 275.59 104.47 275.59C126.73 275.59 133.43 268.06 133.43 260.87C133.43 251.49 124.55 247.64 107.31 244.29L60.1 235.25C20.93 227.71 0 200.59 0 171.8C0 136.81 24.78 107.52 73.49 102.17C110.32 98.15 155.18 102.67 179.79 105.68C180.63 109.86 181.13 113.88 181.13 118.23C181.13 150.87 163.89 157.91 147.31 157.91C134.59 157.91 114.83 155.56 92.23 155.56C69.29 155.56 59.75 161.92 59.75 169.62C59.75 177.82 68.79 181.17 83.19 183.69L128.22 192.06C174.43 200.59 194.36 226.88 194.36 259.18Z" fill="#795FE4"/>
</svg>
