<svg width="791" height="229" viewBox="0 0 791 229" fill="none" xmlns="http://www.w3.org/2000/svg">
<path d="M114.1 0C51.1 0 0 51.1 0 114.1C0 177.1 51.1 228.2 114.1 228.2C177.1 228.2 228.2 177.1 228.2 114.1C228.2 51.1 177.1 0 114.1 0ZM166.4 164.6C164.3 168 160 169 156.6 167C129.8 150.6 96.1 146.9 56.3 156C52.5 156.9 48.7 154.5 47.8 150.6C46.9 146.8 49.3 143 53.2 142.1C96.7 132.2 134 136.4 164.1 154.8C167.4 156.8 168.5 161.2 166.4 164.6ZM180.4 133.5C177.8 137.7 172.3 139 168.2 136.4C137.5 117.5 90.8 112.1 54.5 123.1C49.8 124.5 44.8 121.9 43.4 117.2C42 112.5 44.6 107.5 49.3 106.1C90.8 93.5 142.3 99.6 177.5 121.3C181.7 123.9 183 129.3 180.4 133.5ZM181.6 101.1C144.8 79.3 84.1 77.2 49 87.9C43.4 89.6 37.4 86.4 35.7 80.8C34 75.2 37.2 69.2 42.8 67.5C83.1 55.3 150.1 57.6 192.5 82.8C197.6 85.8 199.2 92.4 196.2 97.4C193.2 102.5 186.7 104.2 181.6 101.1Z" fill="#00D960"/>
<path d="M260.9 155.1L272.2 139.5C279.9 147.9 292.4 155.4 308.3 155.4C324.7 155.4 331.1 147.3 331.1 139.6C331.1 115.6 264.7 130.5 264.7 88.6C264.7 69.6 281.1 55 306.3 55C323.9 55 338.5 60.8 348.9 71.1L337.6 86.1C328.5 77 316.4 72.9 304.4 72.9C292.8 72.9 285.2 78.7 285.2 87.1C285.2 108.5 351.6 95.3 351.6 137.8C351.6 156.8 338.1 173.2 307.4 173.2C286.4 173.2 271.2 165.7 260.9 155.1Z" fill="#00D960"/>
<path d="M387.4 159.7V202.7H369.4V88.5H387.4V99.8C393.6 91.6 403.1 86.4 413.9 86.4C435.3 86.4 450.5 102.5 450.5 129.7C450.5 156.9 435.3 173.2 413.9 173.2C403.5 173.2 394.3 168.4 387.4 159.7ZM432.1 129.7C432.1 113.6 422.9 102.3 408.6 102.3C400.2 102.3 391.5 107.1 387.4 113.3V146C391.3 152.2 400.2 157.3 408.6 157.3C422.9 157.3 432.1 145.8 432.1 129.7Z" fill="#00D960"/>
<path d="M463.6 129.7C463.6 105.9 479.7 86.4 506.1 86.4C532.5 86.4 548.6 105.9 548.6 129.7C548.6 153.3 532.5 173.2 506.1 173.2C479.7 173.2 463.6 153.4 463.6 129.7ZM529.9 129.7C529.9 115.1 521.5 102.3 506.1 102.3C490.9 102.3 482.3 115.1 482.3 129.7C482.3 144.4 490.9 157.3 506.1 157.3C521.5 157.3 529.9 144.5 529.9 129.7Z" fill="#00D960"/>
<path d="M570.6 151.8V104.1H556.9V88.5H570.6V65.9H588.6V88.5H605.4V104.1H588.6V147.4C588.6 153.1 591.3 157.3 596.5 157.3C599.9 157.3 603 155.7 604.4 154.2L608.7 167.9C605.5 170.8 600.1 173.2 591.9 173.2C577.8 173.2 570.6 165.7 570.6 151.8Z" fill="#00D960"/>
<path d="M619.4 67.3C619.4 61.1 624.4 56.2 630.5 56.2C636.7 56.2 641.6 61.2 641.6 67.3C641.6 73.5 636.6 78.4 630.5 78.4C624.4 78.4 619.4 73.4 619.4 67.3ZM621.5 88.5H639.5V171.2H621.5V88.5Z" fill="#00D960"/>
<path d="M667.2 171.2V104.1H653.5V88.5H667.2V83.9C667.2 65.9 677.6 55.3 693.2 55.3C700.7 55.3 708.1 57.2 713.1 62.5L706.1 73.6C703.7 71.4 700.6 70 696.7 70C689.5 70 685.2 74.6 685.2 83.9V88.5H702V104.1H685.2V171.2H667.2Z" fill="#00D960"/>
<path d="M714.8 187.4C716.7 188.3 719.6 188.8 721.6 188.8C727.4 188.8 731.2 187.1 733.6 181.6L737.7 172.2L703.6 88.5H722.9L747 150.5L771.1 88.5H790.3L750.6 186.1C744.9 200.1 735.2 204.6 722.4 204.8C719.8 204.8 714.7 204.3 712.3 203.6L714.8 187.4Z" fill="#00D960"/>
</svg>
