<svg width="229" height="229" viewBox="0 0 229 229" fill="none" xmlns="http://www.w3.org/2000/svg">
<path d="M114.1 0C51.1 0 0 51.1 0 114.1C0 177.1 51.1 228.2 114.1 228.2C177.1 228.2 228.2 177.1 228.2 114.1C228.2 51.1 177.1 0 114.1 0ZM166.4 164.6C164.3 168 160 169 156.6 167C129.8 150.6 96.1 146.9 56.3 156C52.5 156.9 48.7 154.5 47.8 150.6C46.9 146.8 49.3 143 53.2 142.1C96.7 132.2 134 136.4 164.1 154.8C167.4 156.8 168.5 161.2 166.4 164.6ZM180.4 133.5C177.8 137.7 172.3 139 168.2 136.4C137.5 117.5 90.8 112.1 54.5 123.1C49.8 124.5 44.8 121.9 43.4 117.2C42 112.5 44.6 107.5 49.3 106.1C90.8 93.5 142.3 99.6 177.5 121.3C181.7 123.9 183 129.3 180.4 133.5ZM181.6 101.1C144.8 79.3 84.1 77.2 49 87.9C43.4 89.6 37.4 86.4 35.7 80.8C34 75.2 37.2 69.2 42.8 67.5C83.1 55.3 150.1 57.6 192.5 82.8C197.6 85.8 199.2 92.4 196.2 97.4C193.2 102.5 186.7 104.2 181.6 101.1Z" fill="#00D960"/>
</svg>
