<svg width="498" height="247" viewBox="0 0 498 247" fill="none" xmlns="http://www.w3.org/2000/svg">
<path d="M123.429 247C191.596 247 246.857 191.707 246.857 123.5C246.857 55.2928 191.596 0 123.429 0C55.2609 0 0 55.2928 0 123.5C0 191.707 55.2609 247 123.429 247Z" fill="#F0281E"/>
<path d="M92.2253 141.136C87.8065 148.966 85.9058 152.424 81.2402 152.424C77.957 152.424 74.6738 150.744 74.6738 144.668C74.6738 138.592 74.7972 113.867 74.7972 113.867H55.7892V146.15C55.7892 165.169 69.7366 171.418 81.1167 171.418C91.46 171.418 98.2239 166.7 105.482 154.079C108.617 148.669 128.613 113.867 128.613 113.867H107.63C107.63 113.867 98.298 130.391 92.2253 141.136Z" fill="white"/>
<path d="M194.769 170.924H119.972L130.759 151.905H194.769V170.924Z" fill="white"/>
<path d="M175.761 75.8291H42.4587V94.8481H175.761C181.019 94.8481 185.389 98.973 185.389 104.234C185.389 109.495 181.019 113.867 175.761 113.867C164.332 113.867 151.816 113.867 151.816 113.867L140.782 132.886C140.782 132.886 163.443 132.886 175.761 132.886C191.535 132.886 204.397 120.017 204.397 104.234C204.397 88.4508 191.535 75.8291 175.761 75.8291Z" fill="white"/>
<path fill-rule="evenodd" clip-rule="evenodd" d="M322.691 85.4619H294.006V161.291H307.978V134.245H322.715C327.628 134.245 332.047 133.232 335.996 131.157C339.946 129.107 343.056 126.217 345.327 122.512C347.599 118.807 348.734 114.559 348.734 109.792C348.734 105.099 347.623 100.899 345.377 97.1944C343.13 93.4894 340.045 90.6242 336.095 88.5494C332.145 86.4993 327.677 85.4619 322.691 85.4619ZM330.368 118.856C327.825 121.104 324.468 122.216 320.346 122.216H307.953V97.5402H320.025C324.345 97.5402 327.801 98.6023 330.368 100.702C332.935 102.801 334.219 105.765 334.219 109.619C334.219 113.546 332.935 116.609 330.368 118.856ZM373.593 85.4619H359.62V161.291H373.593V85.4619ZM390.626 157.808C387.17 154.795 385.442 150.818 385.442 145.903C385.442 140.568 387.515 136.245 391.687 132.985C395.859 129.7 401.512 128.07 408.72 128.07H419.385V125.501C419.385 122.364 418.249 119.894 415.978 118.091C413.707 116.263 410.646 115.374 406.795 115.374C403.66 115.374 400.525 116.065 397.414 117.449C394.279 118.832 391.712 120.338 389.737 121.993V109.594C391.589 107.964 394.279 106.457 397.785 105.099C401.315 103.74 405.067 103.073 409.041 103.073C416.225 103.073 422.051 105.148 426.543 109.322C431.036 113.497 433.258 119.425 433.258 127.106V145.36C433.258 147.064 433.727 148.398 434.64 149.312C435.554 150.225 436.739 150.695 438.17 150.695C438.664 150.695 439.281 150.596 440.047 150.374C440.787 150.151 441.478 149.88 442.12 149.509V159.982C439.627 161.538 436.492 162.328 432.74 162.328C429.111 162.328 426.223 161.34 424.05 159.34C421.878 157.339 420.57 154.82 420.15 151.757C419.088 154.671 417.039 157.166 414.003 159.241C410.967 161.316 407.535 162.328 403.709 162.328C398.426 162.353 394.057 160.846 390.626 157.808ZM402.129 150.127C403.66 151.436 405.561 152.103 407.832 152.103C411.115 152.103 413.855 150.942 416.052 148.62C418.249 146.298 419.36 143.26 419.36 139.481V136.591H410.917C407.56 136.591 404.894 137.381 402.87 138.987C400.846 140.592 399.834 142.643 399.834 145.137C399.858 147.163 400.599 148.818 402.129 150.127ZM444.466 168.355V180.631C446.466 180.977 448.293 181.15 449.897 181.175C462.783 181.175 471.349 175.469 475.62 164.082L497.713 104.16H482.877L469.424 146.026L455.871 104.16H440.936L461.203 159.167C459.92 162.872 458.364 165.391 456.513 166.75C454.662 168.108 452.218 168.775 449.157 168.775C447.675 168.775 446.096 168.627 444.466 168.355Z" fill="black"/>
</svg>
