<svg xmlns:xlink="http://www.w3.org/1999/xlink" xmlns="http://www.w3.org/2000/svg" width="24" height="24" viewBox="0 0 24 24" fill="none">
<path d="M12 24C18.6274 24 24 18.6274 24 12C24 5.37258 18.6274 0 12 0C5.37258 0 0 5.37258 0 12C0 18.6274 5.37258 24 12 24Z" fill="#F0281E"/>
<path d="M10.464 11.064C10.464 11.064 9.55681 12.6696 8.96641 13.7136C8.53681 14.4744 8.35201 14.8104 7.89841 14.8104C7.57921 14.8104 7.26001 14.6472 7.26001 14.0568C7.26001 13.464 7.27201 11.064 7.27201 11.064H5.42401V14.2008C5.42401 16.0488 6.78001 16.656 7.88641 16.656C8.89201 16.656 9.54961 16.1976 10.2552 14.9712C10.56 14.4456 12.504 11.064 12.504 11.064H10.464Z" fill="white"/>
<path d="M11.664 16.608H18.936V14.76H12.7128L11.664 16.608Z" fill="white"/>
<path d="M17.088 7.368H4.12799V9.216H17.088C17.5992 9.216 18.024 9.6168 18.024 10.128C18.024 10.6392 17.5992 11.064 17.088 11.064C15.9768 11.064 14.76 11.064 14.76 11.064L13.6872 12.912C13.6872 12.912 15.8904 12.912 17.088 12.912C18.6216 12.912 19.872 11.6616 19.872 10.128C19.872 8.5944 18.6216 7.368 17.088 7.368Z" fill="white"/>
</svg>