<svg width="276" height="67" viewBox="0 0 276 67" fill="none" xmlns="http://www.w3.org/2000/svg">
<path fill-rule="evenodd" clip-rule="evenodd" d="M100.541 52.1359H93.615L80.559 18.6349H86.814L91.6 31.3479C93.489 36.3579 95.378 41.4099 97.141 46.4209C98.946 41.3689 100.793 36.2339 102.724 31.1809L107.468 18.6349H113.639L100.541 52.1349V52.1359ZM123.798 11.5119C123.798 13.6239 122.077 15.4049 119.81 15.4049C117.543 15.4049 115.822 13.6239 115.822 11.5119C115.822 9.3999 117.543 7.6189 119.81 7.6189C122.077 7.6189 123.798 9.3999 123.798 11.5119ZM116.872 52.1349V18.6349H122.749V52.1349H116.872ZM156.668 29.5669V52.1359H151.085V47.7049C148.944 51.0999 144.746 52.9639 139.582 52.9639C132.74 52.9639 127.576 49.9409 127.576 43.3149C127.576 34.6189 136.392 33.2519 145.502 31.2649L150.959 30.1049V29.9809C150.959 24.8879 147.475 22.8999 142.731 22.8999C137.525 22.8999 133.747 25.3019 131.648 27.1239L129.717 22.2369C132.32 20.1669 136.854 17.8469 142.983 17.8469C151.673 17.8069 156.668 22.4029 156.668 29.5669ZM150.959 37.8899V34.8259L146.005 35.9029C137.316 37.8079 133.453 39.0499 133.453 43.2729C133.453 46.3799 136.056 48.0769 140.422 48.0769C146.131 48.0359 150.959 45.1369 150.959 37.8899ZM196.003 35.3639C196.003 46.0899 189.622 52.9639 180.135 52.9639C175.181 52.9639 171.235 51.1419 168.632 47.6639V62.0329H162.755V18.6349H168.422V23.8939C171.025 19.9599 175.223 17.8059 180.47 17.8059C189.706 17.8059 196.003 24.6799 196.003 35.3639ZM190.042 35.3639C190.042 27.7859 185.802 22.9829 179.421 22.9829C173.04 22.9829 168.38 27.7859 168.38 35.4889C168.38 42.9839 172.83 47.8289 179.295 47.8289C185.76 47.8289 190.042 42.9839 190.042 35.3639ZM200.956 52.1359V8.9029H206.834V52.1359H200.956ZM240.795 29.5659V52.1359H235.212V47.7049C233.071 51.0999 228.873 52.9639 223.709 52.9639C216.867 52.9639 211.703 49.9409 211.703 43.3149C211.703 34.6189 220.519 33.2519 229.628 31.2649L235.086 30.1049V29.9809C235.086 24.8879 231.602 22.8999 226.858 22.8999C221.652 22.8999 217.874 25.3019 215.775 27.1239L213.844 22.2369C216.447 20.1669 220.981 17.8469 227.11 17.8469C235.799 17.8069 240.795 22.4019 240.795 29.5659ZM235.086 37.8899V34.8259L230.132 35.9029C221.442 37.8079 217.58 39.0499 217.58 43.2729C217.58 46.3799 220.183 48.0769 224.549 48.0769C230.258 48.0359 235.086 45.1369 235.086 37.8899ZM263.128 49.9399C259.98 57.9329 256.034 61.0799 248.813 62.7779L246.966 58.0979C250.492 56.9389 253.641 55.8209 255.992 52.5079L242.768 18.6349H249.023L253.557 30.6849C255.446 35.7369 257.713 41.7409 259.14 45.6749C260.693 41.6589 262.876 35.7369 264.807 30.6849L269.341 18.6349H275.428L263.128 49.9409V49.9399Z" fill="#202E31"/>
<path d="M46.976 39.7541V26.5031L11.802 7.91309C8.38727 10.7978 5.57872 14.3314 3.53903 18.3091L33.584 33.1291L3.53903 47.9461C5.56791 51.931 8.37804 55.4669 11.802 58.3431L46.976 39.7541Z" fill="url(#paint0_linear_44_19)"/>
<path fill-rule="evenodd" clip-rule="evenodd" d="M67.168 33.128C67.168 51.424 52.132 66.256 33.584 66.256C25.273 66.256 17.666 63.278 11.802 58.344L46.976 39.754V26.503L11.802 7.913C17.666 2.977 25.272 0 33.584 0C52.132 0 67.168 14.832 67.168 33.128Z" fill="url(#paint1_linear_44_19)"/>
<path d="M3.53902 47.9471L33.584 33.1281L3.53902 18.3101C1.20651 22.9009 -0.00621235 27.9787 2.39305e-05 33.1281C2.39305e-05 38.4551 1.27402 43.4881 3.53902 47.9471Z" fill="url(#paint2_linear_44_19)"/>
<defs>
<linearGradient id="paint0_linear_44_19" x1="3.51903" y1="58.3061" x2="46.965" y2="58.3061" gradientUnits="userSpaceOnUse">
<stop stop-color="#EBF5F7"/>
<stop offset="0.152" stop-color="#F1F8FA"/>
<stop offset="0.538" stop-color="#FCFDFE"/>
<stop offset="1" stop-color="white"/>
</linearGradient>
<linearGradient id="paint1_linear_44_19" x1="51.38" y1="76.578" x2="77.03" y2="15.321" gradientUnits="userSpaceOnUse">
<stop offset="0.1" stop-color="#CC0099"/>
<stop offset="0.199" stop-color="#CF0090"/>
<stop offset="0.36" stop-color="#D70078"/>
<stop offset="0.564" stop-color="#E40050"/>
<stop offset="0.799" stop-color="#F70019"/>
<stop offset="0.9" stop-color="#FF0000"/>
</linearGradient>
<linearGradient id="paint2_linear_44_19" x1="51.38" y1="76.5781" x2="77.03" y2="15.3211" gradientUnits="userSpaceOnUse">
<stop offset="0.1" stop-color="#CC0099"/>
<stop offset="0.199" stop-color="#CF0090"/>
<stop offset="0.36" stop-color="#D70078"/>
<stop offset="0.564" stop-color="#E40050"/>
<stop offset="0.799" stop-color="#F70019"/>
<stop offset="0.9" stop-color="#FF0000"/>
</linearGradient>
</defs>
</svg>
